<svg width="336" height="137" viewBox="0 0 336 137" fill="none" xmlns="http://www.w3.org/2000/svg">
<path d="M9.29658 114.434C24.4679 129.31 41.1435 114.032 49.4019 104.189C54.5552 119.617 64.7626 117.447 69.2222 114.434C58.9817 125.482 33.843 144.687 15.212 133.116C-3.41901 121.545 -0.809345 96.1536 2.82436 84.9042C1.83335 88.3192 2.24537 107.52 9.29658 114.434Z" fill="#88E2FF"/>
<path d="M78.4653 9.42006L86.0996 25.5135L98.5458 12.7709L100.541 30.4711L116.45 22.4603L112.59 39.8493L130.238 37.4382L120.941 52.6317L138.416 56.0816L124.689 67.433L140.097 76.3702L123.428 82.6494L135.1 96.1054L117.295 96.632L123.965 113.148L106.954 107.865L107.899 125.653L93.5257 115.133L88.6444 132.263L78.4653 117.646L68.2863 132.263L63.405 115.133L49.0312 125.653L49.9767 107.865L32.9658 113.148L39.6355 96.632L21.831 96.1054L33.5022 82.6494L16.8334 76.3702L32.2413 67.433L18.5145 56.0816L35.9896 52.6317L26.6923 37.4382L44.3407 39.8493L40.4804 22.4603L56.3897 30.4711L58.3849 12.7709L70.831 25.5135L78.4653 9.42006Z" fill="white"/>
<path d="M62.905 52.2509C42.9784 29.1015 69.2762 8.61868 79.2042 32.5731C89.2539 22.248 105.162 22.2216 112.914 34.5229C114.035 31.9725 115.435 29.5753 117.389 27.5656C118.003 26.935 118.345 26.544 118.59 26.1248C118.835 25.7056 119.004 25.223 119.264 24.4127C119.526 23.5955 119.858 22.8275 120.29 22.1159C120.694 21.4537 121.186 20.8407 121.796 20.2824V18.7834C121.514 18.6267 121.251 18.3995 121.017 18.1124C120.664 17.6773 120.378 17.0961 120.209 16.3986C119.95 16.4549 119.673 16.4673 119.385 16.4338C118.876 16.3722 118.326 16.1626 117.754 15.7891C117.46 15.5972 117.167 15.3876 116.876 15.1586C116.585 14.9278 116.301 14.6813 116.03 14.4153C115.599 13.9943 115.296 13.5364 115.104 13.0661C114.827 12.388 114.783 11.687 114.926 11.037C115.069 10.3888 115.398 9.78998 115.867 9.31089C116.116 9.05725 116.403 8.83885 116.723 8.66447C116.239 7.01585 116.617 5.41301 117.506 4.0462C118.001 3.28354 118.655 2.59661 119.408 2.01712C120.156 1.44116 121.002 0.970881 121.886 0.641508C123.856 -0.0947383 126.014 -0.133488 127.688 0.89162C128.931 0.935654 129.922 1.30025 130.636 2.02065C131.334 2.72519 131.747 3.74854 131.847 5.12239C132.842 5.99955 133.288 7.09687 133.397 8.26641C133.507 9.44828 133.263 10.6936 132.897 11.8437C132.509 13.0573 132.156 14.366 131.856 15.6799C131.631 16.6681 131.437 17.6579 131.281 18.6126C131.38 18.5457 131.479 18.4787 131.579 18.4083L132.281 17.9151V20.9799L132.096 21.1137C131.611 21.466 131.128 21.7813 130.648 22.0525C130.049 32.4287 128.248 41.4591 125.58 49.128C122.665 57.5068 118.712 64.2616 114.153 69.3695C113.36 75.3035 111.189 80.1085 107.849 83.8813C105.721 86.2856 103.121 88.2671 100.102 89.8523C99.3124 92.674 98.1768 95.4763 96.6426 98.254C95.0749 101.091 93.0911 103.908 90.6346 106.701L90.446 106.916C89.335 108.186 88.9488 108.627 86.9138 108.665C86.5312 108.672 86.1538 108.651 85.78 108.602C85.4008 108.551 85.0288 108.473 84.6673 108.364C83.8049 108.105 82.9991 107.601 82.8086 106.659C82.731 106.277 82.7681 105.877 82.8897 105.476C83.0978 104.78 83.5634 104.066 84.1047 103.448C85.1363 102.272 86.1908 101.153 87.2471 100.036C87.792 99.4605 88.3352 98.8845 88.8748 98.3015C88.4745 97.7678 88.0089 97.3152 87.4764 96.94C86.9033 96.5366 86.2526 96.2214 85.5243 95.9941C84.9476 96.3957 84.2564 96.6635 83.4593 96.8079C80.5497 101.243 77.5466 105.127 74.4465 108.415C71.2988 111.755 68.0435 114.487 64.6772 116.572C63.4728 117.319 62.0038 117.986 60.5984 118.237C60.408 118.27 60.2175 118.296 60.0288 118.314C58.9814 119.97 57.7946 121.499 56.4614 122.897C55.0789 124.348 53.5412 125.657 51.8413 126.818C49.7693 128.234 47.7466 128.459 46.1719 127.919C45.3837 127.647 44.7065 127.182 44.1898 126.577C43.6749 125.972 43.3222 125.227 43.1776 124.394C42.8867 122.709 43.458 120.662 45.2955 118.709C45.5988 118.386 45.8898 118.052 46.1631 117.705C46.3394 117.481 46.507 117.255 46.6639 117.025C46.551 116.945 46.4435 116.859 46.3377 116.764C45.7452 116.234 45.2743 115.466 44.9428 114.548C44.9111 114.46 44.8793 114.37 44.8511 114.279C43.3875 115.468 37.2402 120.354 31.5955 123.107C30.7826 123.503 30.7773 122.695 31.3628 122.374C32.6941 121.641 38.9666 118.041 44.4543 112.433C44.2374 110.652 44.4173 108.618 45.0786 106.733C45.9092 104.369 47.632 101.338 49.7322 99.3918C51.2347 98.0003 52.9364 97.1478 54.6751 97.4261C54.7474 95.892 55.0137 94.3737 55.5321 92.9065C53.3137 91.7651 52.5996 89.7396 51.8378 87.5749C51.4128 86.3683 50.9719 85.116 50.2348 83.987C48.7888 85.8523 47.3499 87.7211 45.918 89.5969C42.892 93.56 39.8818 97.5706 36.8893 101.65C36.4008 102.316 35.8171 102.837 35.2352 103.124C34.8102 103.334 34.38 103.424 33.9744 103.364C33.5459 103.3 33.1597 103.078 32.8511 102.668C32.5689 102.291 32.3573 101.748 32.2498 101.016C32.1722 100.491 32.1069 99.9501 32.054 99.3918C32.0011 98.844 31.9641 98.2927 31.9412 97.7379C31.8177 94.7101 32.2251 92.2865 33.1209 90.0302C34.0132 87.7862 35.3851 85.7237 37.2014 83.4058L45.8474 72.3691C45.6288 72.126 45.4172 71.8689 45.2109 71.5959C45.0327 71.3599 44.8635 71.1203 44.7048 70.8808C43.2764 68.7231 42.7791 66.5972 43.1388 64.6227C43.5003 62.6482 44.7153 60.8481 46.7115 59.3421C46.9372 59.1713 47.1771 59.0022 47.4292 58.8366C49.5065 57.4663 52.3262 56.1206 55.4581 54.937C57.7329 54.0775 60.1734 53.3042 62.6122 52.6666C62.7039 52.5239 62.7992 52.3866 62.8997 52.2509H62.905Z" fill="#201E1E"/>
<path fill-rule="evenodd" clip-rule="evenodd" d="M54.2343 109.902C52 110.34 50.1978 108.642 50.1925 108.637L50.3795 108.207C50.3795 108.207 51.5222 109.176 53.2609 109.123C52.4674 108.443 51.9489 107.445 51.7056 106.344C51.5645 105.703 51.5151 105.028 51.5574 104.364C51.5997 103.698 51.7373 103.036 51.9648 102.427C52.455 101.118 53.3685 100.045 54.7051 99.626C54.6769 99.1927 54.6628 98.7595 54.661 98.3279C53.1868 98.0408 51.6879 98.7982 50.3442 100.043C48.3515 101.889 46.7133 104.773 45.9233 107.027C45.0469 109.527 45.0769 112.29 45.7858 114.247C46.0697 115.031 46.4594 115.676 46.9373 116.104C47.3834 116.503 47.9142 116.715 48.5138 116.671C49.3091 116.613 50.2472 116.116 51.3017 115.038C52.0565 114.266 52.6631 113.498 53.1551 112.671C53.6242 111.882 53.9945 111.036 54.296 110.08C54.2748 110.02 54.2537 109.96 54.2325 109.9L54.2343 109.902Z" fill="#FF6E53"/>
<path fill-rule="evenodd" clip-rule="evenodd" d="M53.5201 113.752C53.0704 114.411 52.5502 115.036 51.9401 115.66C50.7198 116.905 49.5842 117.483 48.5773 117.557C48.1858 117.585 47.8172 117.539 47.4734 117.426C47.2829 117.71 47.0819 117.985 46.872 118.251C46.5864 118.613 46.2778 118.967 45.9515 119.314C44.3274 121.041 43.816 122.809 44.0629 124.243C44.1793 124.916 44.4632 125.514 44.8759 126.001C45.2885 126.485 45.8316 126.857 46.4665 127.075C47.7961 127.533 49.5313 127.322 51.3458 126.083C52.9929 124.958 54.4829 123.69 55.8231 122.284C56.4685 121.606 57.0787 120.896 57.6553 120.155C56.9288 120.095 56.2516 119.868 55.6591 119.513C54.848 119.027 54.1955 118.303 53.7811 117.44C53.3685 116.579 53.1939 115.582 53.342 114.55C53.379 114.286 53.439 114.018 53.5201 113.752Z" fill="#FF6E53"/>
<path fill-rule="evenodd" clip-rule="evenodd" d="M63.9402 111.862C62.9809 112.804 61.9845 113.486 61.0006 113.874C60.103 114.228 59.2124 114.34 58.3642 114.185C57.5125 114.03 56.7155 113.606 56.0101 112.891C55.7879 112.665 55.5833 112.424 55.3964 112.169C54.7122 112.984 54.3419 113.845 54.2237 114.675C54.1021 115.528 54.2431 116.35 54.5835 117.056C54.9221 117.763 55.4546 118.355 56.1159 118.751C56.749 119.13 57.5037 119.329 58.3166 119.27C58.5406 118.957 58.761 118.638 58.9744 118.316C58.6869 118.288 58.4083 118.233 58.1403 118.15C57.3556 117.907 56.6767 117.423 56.1776 116.62C55.8567 116.102 55.6133 115.454 55.4705 114.656L56.3487 114.502C56.4703 115.188 56.6714 115.73 56.9341 116.153C57.3097 116.757 57.8176 117.12 58.403 117.301C59.0132 117.49 59.7185 117.488 60.4539 117.358C61.7412 117.129 63.099 116.509 64.2205 115.815C67.5164 113.773 70.7117 111.089 73.8082 107.804C75.3865 106.131 76.9383 104.302 78.4654 102.323C77.8623 102.617 77.3315 103.018 76.7902 103.429C76.2664 103.825 75.7339 104.23 75.1114 104.567C74.1362 105.095 73.2157 105.384 72.3569 105.47C71.1173 105.595 70.0134 105.299 69.0664 104.692C68.8178 104.533 68.5815 104.352 68.3575 104.153C67.9625 105.564 67.4423 106.869 66.7951 108.066C66.028 109.483 65.0811 110.747 63.949 111.859L63.9402 111.862Z" fill="#FFBB00"/>
<path fill-rule="evenodd" clip-rule="evenodd" d="M60.6725 113.048C61.549 112.702 62.4448 112.086 63.3177 111.23C64.3845 110.182 65.2786 108.988 66.0033 107.649C66.6999 106.365 67.2395 104.949 67.631 103.406C67.31 103.017 67.0208 102.582 66.7651 102.11C66.0545 100.804 65.5978 99.2139 65.4267 97.5212C65.2151 95.4182 64.9453 93.5688 64.4039 91.8162C63.8961 90.1711 63.1449 88.6017 61.9722 86.976C59.7944 87.8602 58.2373 89.412 57.2039 91.3336C55.1883 95.0782 55.1266 101.202 56.294 105.257L55.7491 105.322C55.2994 103.76 54.9556 102.154 54.7827 100.538C53.834 100.91 53.1692 101.736 52.7954 102.735C52.5979 103.26 52.4815 103.836 52.4427 104.419C52.4039 105.005 52.4462 105.597 52.5697 106.152C52.7742 107.077 53.1992 107.908 53.8464 108.457C53.5625 107.025 53.5342 105.535 53.6806 104.197L54.5641 104.29C54.2784 106.906 54.7051 110.3 56.6414 112.269C57.2127 112.849 57.8493 113.19 58.5212 113.314C59.1983 113.437 59.9249 113.342 60.6708 113.048H60.6725Z" fill="#FFBB00"/>
<path fill-rule="evenodd" clip-rule="evenodd" d="M66.3102 97.4367C66.4689 99.0131 66.8921 100.487 67.5446 101.687C68.0683 102.65 68.7402 103.436 69.5408 103.948C70.3237 104.45 71.2372 104.695 72.2635 104.591C73.0077 104.516 73.8153 104.26 74.6811 103.792C75.2507 103.483 75.7533 103.101 76.2488 102.726C77.1834 102.018 78.0916 101.329 79.4053 101.077C80.4211 99.7106 81.4262 98.2769 82.4208 96.7779C79.1426 96.4609 76.0213 95.774 73.2563 94.2592C70.3326 92.6564 67.8179 90.1394 65.9575 86.1728C64.873 86.2116 63.8838 86.3701 62.9844 86.629C62.9386 86.6431 62.8927 86.6554 62.8469 86.6695C63.9931 88.3023 64.739 89.891 65.2539 91.5573C65.8165 93.3768 66.0951 95.2808 66.312 97.4367H66.3102Z" fill="#FF6E53"/>
<path fill-rule="evenodd" clip-rule="evenodd" d="M94.9622 92.0417C92.9325 95.316 90.4161 97.9809 87.8997 100.644C86.8416 101.764 85.7854 102.883 84.7785 104.031C84.3129 104.563 83.9179 105.162 83.7469 105.727C83.6657 105.999 83.6375 106.256 83.6834 106.483C83.7257 106.694 83.8368 106.89 84.0325 107.062C84.2336 107.239 84.5263 107.392 84.9248 107.512C85.2493 107.608 85.5737 107.679 85.8982 107.721C86.2297 107.765 86.5648 107.783 86.9034 107.778C88.5416 107.748 88.8625 107.381 89.7813 106.332L89.9699 106.117C92.3823 103.374 94.3291 100.611 95.8668 97.8259C97.2282 95.3618 98.2668 92.8836 99.0233 90.3948C97.7378 91.0095 96.3835 91.559 94.9622 92.0417Z" fill="#FF6E53"/>
<path fill-rule="evenodd" clip-rule="evenodd" d="M89.4885 97.6375C90.961 96.0188 92.377 94.3385 93.6273 92.4714C93.622 92.4714 93.6167 92.4749 93.6131 92.4767C91.0227 93.2623 89.0265 93.8012 87.0903 93.9245C86.8928 94.4618 86.623 94.925 86.2862 95.316C86.9069 95.552 87.4765 95.8515 87.9931 96.2143C88.5574 96.6124 89.0565 97.0862 89.4903 97.6392L89.4885 97.6375Z" fill="#CE0C0B"/>
<path fill-rule="evenodd" clip-rule="evenodd" d="M85.1946 95.1364C85.579 94.8281 85.8894 94.4336 86.1169 93.9492C85.1329 93.9386 84.1489 93.8118 83.0962 93.5494L81.7824 95.8162C82.2462 95.8691 82.7135 95.9149 83.1843 95.9519C83.9973 95.8233 84.6709 95.5556 85.1946 95.1364Z" fill="white"/>
<path fill-rule="evenodd" clip-rule="evenodd" d="M73.8312 93.5599L75.7039 90.3279C72.8825 88.7673 70.0504 86.9003 67.8461 84.9504C67.4353 84.5876 67.0473 84.2212 66.6841 83.8531V85.6268C68.4651 89.5 70.8757 91.9413 73.6848 93.4789C73.7342 93.5053 73.7836 93.5318 73.8329 93.5582L73.8312 93.5599Z" fill="white"/>
<path fill-rule="evenodd" clip-rule="evenodd" d="M56.421 90.9144C57.7171 88.5066 59.7679 86.6273 62.7393 85.773C63.6633 85.507 64.6808 85.3415 65.7917 85.2921V82.8861C64.6279 81.5228 63.852 80.1455 63.658 78.8192C63.5328 78.8509 63.4076 78.8791 63.2842 78.9037C62.4324 79.0746 61.6142 79.0887 60.8242 78.9777C59.5898 78.8051 58.627 78.4088 57.9481 77.8592C57.1951 78.4281 56.4404 78.6378 55.7703 78.562C55.4017 78.5215 55.0596 78.3947 54.7598 78.1956C53.4408 79.876 52.1235 81.5616 50.8133 83.249C51.7162 84.5348 52.2099 85.9368 52.6825 87.2825C53.3702 89.2376 54.0157 91.0676 55.862 92.0734C56.0277 91.6823 56.2129 91.2966 56.4192 90.9144H56.421Z" fill="#CE0C0B"/>
<path fill-rule="evenodd" clip-rule="evenodd" d="M45.218 89.0579C48.1858 85.1706 51.1519 81.3502 54.1162 77.5739C53.9116 77.2956 53.7512 76.9645 53.6401 76.5928C53.6154 76.5065 53.5925 76.4185 53.5731 76.3286C52.083 76.0098 50.6229 75.6029 49.2492 74.9248C48.2687 74.4422 47.3376 73.824 46.4771 73.0085L37.9051 83.9482C36.1364 86.2063 34.805 88.2037 33.9498 90.3543C33.0998 92.4943 32.7136 94.8035 32.8318 97.7009C32.8529 98.2416 32.89 98.7771 32.9411 99.3055C32.9905 99.8233 33.0557 100.35 33.1333 100.884C33.218 101.461 33.3714 101.868 33.5689 102.132C33.7241 102.34 33.9092 102.451 34.1067 102.481C34.3271 102.513 34.5811 102.455 34.8456 102.326C35.3023 102.103 35.7714 101.676 36.177 101.123C39.173 97.0386 42.1867 93.0227 45.2162 89.0562L45.218 89.0579Z" fill="#FF6E53"/>
<path fill-rule="evenodd" clip-rule="evenodd" d="M57.7417 76.0679C57.8317 76.3656 57.9904 76.6439 58.2161 76.8923C58.7557 77.4858 59.6709 77.9209 60.9459 78.0988C61.6389 78.1957 62.3584 78.1833 63.1096 78.0319C63.8467 77.8839 64.6155 77.6056 65.4179 77.167C65.6859 77.0208 65.9487 76.9328 66.2344 77.1283C66.356 77.2111 66.4407 77.3326 66.483 77.4682C66.52 77.5845 66.5253 77.7148 66.4953 77.8399C66.4072 78.2256 66.1356 78.3683 65.7917 78.444L64.7884 78.6677V79.2771H67.0208C70.821 79.2771 69.6483 75.3387 68.987 72.8728L69.412 72.6527C69.7312 73.8416 70.225 75.2701 70.3854 76.5611C71.3342 76.5735 72.1171 76.3709 72.6955 76.0045C73.2034 75.684 73.5578 75.2313 73.7289 74.6853C74.4113 72.5276 72.2529 69.6513 70.7293 68.399L70.9374 68.0062C72.4151 69.2198 74.272 71.0041 74.6758 73.0208C76.7073 71.2559 76.829 68.3567 74.7975 66.4369C73.8505 65.5421 72.1189 64.5152 70.8986 63.9763C69.8194 63.4989 68.9218 63.2488 68.123 63.358C67.3453 63.4637 66.6188 63.9234 65.8464 64.8675C65.492 65.3008 65.208 65.6936 64.9559 66.0864C63.7409 67.9745 63.6933 69.1124 61.5172 70.6306C61.1487 70.8878 60.7854 71.1608 60.4292 71.4461C60.08 71.7244 59.7397 72.0168 59.4082 72.318C58.366 73.2639 57.7947 74.2309 57.673 75.0992C57.6254 75.4391 57.6483 75.765 57.74 76.0662L57.7417 76.0679Z" fill="white"/>
<path fill-rule="evenodd" clip-rule="evenodd" d="M56.7948 74.9794C56.9447 73.9103 57.6077 72.7531 58.8121 71.6628C59.1525 71.3546 59.5069 71.0516 59.8755 70.7557C60.237 70.4668 60.6161 70.1833 61.0129 69.9067C61.2421 69.7464 61.4449 69.5897 61.6283 69.4329C61.1522 69.0965 60.5985 68.8939 60.0218 68.864C59.3429 68.8288 58.6252 69.0348 57.9551 69.5474C57.3415 70.0177 56.8054 70.5126 56.3451 71.034C55.8866 71.5518 55.4987 72.0978 55.176 72.6703C54.3648 74.1075 54.222 75.411 54.4971 76.3427C54.6135 76.7373 54.8039 77.0596 55.0473 77.2886C55.2783 77.507 55.5604 77.6426 55.8708 77.6778C56.3028 77.7254 56.8054 77.5862 57.3326 77.2093C57.1334 76.9345 56.9852 76.6369 56.89 76.3216C56.7631 75.8988 56.7296 75.4479 56.7966 74.9794H56.7948Z" fill="white"/>
<path fill-rule="evenodd" clip-rule="evenodd" d="M54.3966 72.237C54.7475 71.6152 55.1725 71.0181 55.6768 70.4475C56.1776 69.8803 56.7543 69.3448 57.412 68.8429C57.8441 68.5135 58.2937 68.2827 58.7469 68.1436C58.6411 64.8428 56.6784 61.6777 54.0651 59.7279L54.3419 59.2593C57.4279 61.5614 59.4946 64.089 59.6339 67.9798C59.7785 67.971 59.9231 67.9692 60.066 67.978C60.8683 68.0185 61.6319 68.3162 62.2702 68.8023C63.1096 67.8459 63.397 66.8737 64.21 65.609C64.478 65.1933 64.7796 64.7759 65.1587 64.3109C66.0845 63.1783 66.9962 62.62 68.0048 62.4826C68.9941 62.347 70.0363 62.627 71.2583 63.166C72.6179 63.7666 74.1309 64.6913 75.1643 65.7517C77.5097 68.1595 77.4867 71.5712 74.7499 73.5739C74.7781 74.0248 74.727 74.4862 74.5806 74.9548C74.3443 75.7016 73.8629 76.3198 73.1699 76.7566C72.4628 77.204 71.537 77.4541 70.4366 77.4506C70.4031 78.9953 69.6219 80.1666 67.0226 80.1666H65.0088C65.6577 81.5088 66.8798 82.9126 68.4334 84.2864C71.4312 86.9372 75.6316 89.4401 79.3489 91.198C82.1598 92.5278 84.23 93.0685 86.2967 93.0615C88.3741 93.0544 90.4866 92.4943 93.3557 91.6242C99.0815 89.8893 103.772 87.1486 107.188 83.2895C110.436 79.6206 112.54 74.9283 113.295 69.1159L113.404 68.8763C117.925 63.8424 121.851 57.1528 124.744 48.8321C127.342 41.3657 129.109 32.5889 129.733 22.514C128.763 22.949 127.804 23.1921 126.861 23.2079C125.24 23.2326 123.688 22.5915 122.221 21.0996C121.757 21.5523 121.373 22.0455 121.052 22.5739C120.657 23.222 120.354 23.9266 120.112 24.6804C119.833 25.5488 119.648 26.0737 119.357 26.5704C119.066 27.0671 118.689 27.5004 118.028 28.182C117.017 29.2212 116.157 30.3767 115.404 31.6202H115.402C114.686 32.8003 114.069 34.0614 113.515 35.3736C113.704 35.6537 113.896 35.9584 114.093 36.2825C115.532 38.6251 116.617 41.0029 117.298 43.416C117.962 45.7779 118.239 48.1734 118.075 50.6076C119.62 52.3372 120.147 54.3046 119.971 56.2633C119.763 58.5883 118.56 60.8851 116.908 62.7362C114.926 64.9556 112.898 66.7997 110.831 68.3409C109.651 70.9459 108.204 73.2991 106.453 75.3687C104.675 77.47 102.585 79.2806 100.15 80.7655C97.1294 82.6096 94.4261 83.6294 91.8621 83.4392C89.2734 83.249 86.8663 81.8381 84.4734 78.8209C82.9515 76.9046 81.8 75.0992 80.8954 73.1C79.9925 71.1027 79.3401 68.9186 78.8181 66.2396C78.476 64.4835 78.0775 62.7803 77.5643 61.1915C77.0529 59.6116 76.4252 58.1426 75.621 56.8392C74.369 54.8137 73.0994 53.5543 71.5705 52.9326C70.0381 52.309 68.2094 52.3108 65.8482 52.8128C62.473 53.5314 58.9603 54.5653 55.7773 55.7666C52.7055 56.9273 49.9475 58.2413 47.9266 59.5764C47.6956 59.7296 47.4699 59.8881 47.253 60.0519C45.4367 61.4205 44.3363 63.0322 44.0171 64.7794C43.6979 66.5267 44.1547 68.4325 45.4508 70.3911C45.5971 70.6113 45.7558 70.8349 45.9269 71.0622C47.0167 72.5029 48.2793 73.4594 49.6442 74.1322C50.8539 74.7293 52.15 75.1062 53.4796 75.4021C53.4796 74.4633 53.7547 73.3766 54.3983 72.2387L54.3966 72.237Z" fill="#FFBB00"/>
<path fill-rule="evenodd" clip-rule="evenodd" d="M61.3991 39.6167C62.2544 43.5181 64.0583 46.7907 66.4284 49.6846C67.2589 49.3993 68.1354 49.2496 69.0206 49.2214C69.1952 49.2161 69.368 49.2144 69.5426 49.2179C69.1282 43.0426 74.1521 42.9527 77.4427 48.9079C77.6296 42.3997 75.5752 36.8637 71.1543 32.3564C63.6034 24.6576 59.6569 31.6818 61.3973 39.6167H61.3991Z" fill="#FBF0BA"/>
<path fill-rule="evenodd" clip-rule="evenodd" d="M78.4107 60.9203C78.9398 62.5531 79.3453 64.2898 79.6927 66.074C80.2006 68.6826 80.8337 70.805 81.7066 72.7372C82.5794 74.6659 83.6939 76.4114 85.1699 78.2714C87.3953 81.0755 89.5925 82.3824 91.9255 82.555C94.2832 82.7294 96.819 81.7589 99.6881 80.0098C102.039 78.5761 104.056 76.8271 105.774 74.7962C107.146 73.174 108.329 71.3704 109.336 69.403C109.128 69.5421 108.921 69.6795 108.713 69.8134C105.915 71.6135 103.053 72.9134 100.154 73.8891C98.817 74.3383 97.5702 74.6906 96.3147 74.8456C95.5494 74.9389 94.7805 74.96 93.9905 74.8861C94.6394 75.4074 95.299 75.8777 95.9691 76.3022L95.4929 77.049C93.7683 75.9517 92.1072 74.5708 90.5236 72.8323C88.9454 71.0974 87.4429 69.0014 86.0322 66.4668C84.6197 63.9287 83.0803 61.3659 81.3486 58.9546C79.6204 56.5504 77.7001 54.2923 75.5187 52.3601C75.2119 52.0889 74.8698 51.8335 74.4995 51.5992C72.9494 50.6146 70.9744 50.051 69.0541 50.1126C67.1584 50.1725 65.3156 50.8454 63.9966 52.3267C64.5573 52.1928 65.1146 52.066 65.6701 51.948C68.2094 51.4072 70.2003 51.416 71.9108 52.1118C73.6266 52.8093 75.0267 54.1849 76.381 56.3778C77.2275 57.7481 77.8835 59.2822 78.416 60.9256L78.4107 60.9203Z" fill="#FF6E53"/>
<path fill-rule="evenodd" clip-rule="evenodd" d="M82.0645 58.4333C83.8227 60.8798 85.378 63.4707 86.8046 66.0335C88.1783 68.5029 89.6419 70.5443 91.1779 72.2317C91.6769 72.7795 92.1812 73.2903 92.6944 73.7658C93.9235 74.0635 95.0662 74.0987 96.2054 73.9596C97.3992 73.8134 98.5913 73.4752 99.8697 73.0454C102.702 72.0925 105.495 70.8226 108.232 69.0648C110.965 67.3069 113.644 65.0577 116.243 62.1479C117.781 60.4253 118.899 58.3082 119.087 56.1893C119.246 54.4156 118.749 52.6314 117.292 51.0708L117.16 50.9281L117.174 50.7344C117.358 48.3389 117.095 45.9822 116.441 43.659C115.785 41.3252 114.73 39.0231 113.333 36.7475C112.603 35.5568 112.002 34.6655 111.471 34.5141C111.022 34.3873 110.491 34.9051 109.736 36.4568L109.339 37.2724L108.937 36.4604C108.152 34.8751 107.072 33.2019 105.814 31.6818C104.661 30.2886 103.363 29.031 102.018 28.0939C99.8186 26.5668 97.5262 26.0226 95.463 26.2709C93.9006 26.4594 92.4652 27.1041 91.3031 28.1204C90.1357 29.1402 89.2363 30.5369 88.7514 32.2278C88.0125 34.7959 88.2259 38.0403 89.8782 41.6793L90.1198 42.2094L89.5414 42.2993C88.6527 42.4384 87.8186 42.6568 87.0409 42.951C84.7485 43.8158 82.985 45.327 81.9058 47.3103C80.8213 49.3042 80.4193 51.7806 80.8566 54.5706C81.0312 55.6803 81.338 56.8427 81.7894 58.044C81.8829 58.1726 81.9764 58.3012 82.0698 58.4297L82.0645 58.4333Z" fill="#FBF0BA"/>
<path fill-rule="evenodd" clip-rule="evenodd" d="M120.736 7.22545C118.729 9.85867 120.184 13.7988 122.496 13.0414C122.542 12.3017 122.785 11.4615 123.272 10.5262L123.746 10.6354C122.879 12.3017 123.201 13.8446 123.783 14.6619C124.108 15.1181 124.573 15.4245 125.078 15.5531C125.577 15.6799 126.113 15.6324 126.58 15.3823C127.384 14.9543 128.01 13.9239 127.996 12.152L128.883 12.1449C128.901 14.3043 128.067 15.5954 126.996 16.1661C126.323 16.5254 125.561 16.5958 124.857 16.4162C124.157 16.2383 123.51 15.812 123.059 15.1762C122.808 14.8239 122.632 14.4135 122.545 13.9503C122.427 13.9785 122.311 13.9996 122.196 14.0119C122.091 14.5351 121.912 14.9842 121.674 15.3488C121.496 15.6236 121.283 15.849 121.041 16.0234C121.17 16.6628 121.41 17.1789 121.71 17.5487C121.93 17.82 122.177 18.0067 122.429 18.093C122.655 18.1723 122.888 18.1687 123.108 18.0754C123.321 17.9838 123.531 17.8059 123.723 17.5311L124.455 18.0384C124.432 18.0701 124.409 18.1018 124.387 18.1335C125.319 19.4087 126.362 19.9812 127.485 20.0129C128.358 20.0375 129.301 19.7469 130.296 19.2097C130.469 18.0173 130.707 16.7473 130.996 15.4809C131.299 14.1493 131.659 12.816 132.057 11.5707C132.394 10.5174 132.616 9.38839 132.519 8.34215C132.426 7.33994 132.033 6.40466 131.142 5.67898L130.989 5.55392L130.978 5.35665C130.915 4.1149 130.585 3.22013 130.012 2.64241C129.446 2.07173 128.617 1.78991 127.554 1.77054L127.319 1.70008C125.887 0.771848 123.97 0.808836 122.203 1.46934C121.405 1.76701 120.637 2.19326 119.959 2.71638C119.283 3.23598 118.698 3.84893 118.259 4.52529C117.446 5.77585 117.134 7.24834 117.693 8.73845L117.844 9.1418L117.444 9.30561C117.084 9.4518 116.769 9.66668 116.511 9.93089C116.16 10.2884 115.913 10.7376 115.806 11.222C115.7 11.7046 115.732 12.2242 115.938 12.7297C116.086 13.0908 116.322 13.4483 116.661 13.7794C116.915 14.0278 117.172 14.255 117.433 14.4611C117.696 14.6689 117.968 14.8609 118.245 15.0423C118.696 15.3365 119.119 15.502 119.497 15.5478C119.803 15.5848 120.078 15.5443 120.315 15.4316C120.555 15.3171 120.763 15.1269 120.932 14.8662C121.092 14.6214 121.218 14.3149 121.302 13.9521C119.137 13.4025 117.906 9.98373 120.288 6.85909L120.738 7.22545H120.736Z" fill="white"/>
<path fill-rule="evenodd" clip-rule="evenodd" d="M127.458 20.9023C126.081 20.8636 124.827 20.2066 123.732 18.7482C123.641 18.8063 123.549 18.8539 123.454 18.8944C123.203 19.0018 122.946 19.0476 122.688 19.0388V20.3035C124.023 21.7337 125.415 22.3449 126.85 22.3238C128.298 22.3009 129.82 21.6421 131.393 20.5289V19.6007C130.021 20.4567 128.702 20.9376 127.458 20.9023Z" fill="white"/>
<path fill-rule="evenodd" clip-rule="evenodd" d="M93.7348 50.9775V51.7014C93.7348 51.7014 94.4472 51.6239 95.2831 51.6027C95.8685 53.343 96.6268 54.863 97.5226 56.1717V60.2915C97.5226 68.5998 105.102 68.4765 108.117 62.3417C110.477 62.4985 112.905 62.0687 115.203 61.0823V60.3038C109.01 63.048 100.316 62.0088 96.0607 51.6045C96.4346 51.6151 96.7961 51.645 97.1012 51.7031V51.0585C97.1012 51.0585 95.5864 50.7133 93.7366 50.981L93.7348 50.9775Z" fill="#201E1E"/>
<path fill-rule="evenodd" clip-rule="evenodd" d="M98.78 60.0238H98.101V60.3849C98.101 65.0243 100.75 66.7187 103.393 65.9948V63.8054C99.8504 63.7614 98.7817 60.022 98.7817 60.022L98.78 60.0238Z" fill="#FF6E53"/>
<path fill-rule="evenodd" clip-rule="evenodd" d="M93.1758 65.2973H94.1122C94.1122 65.2973 96.3852 71.7509 103.781 68.1242V68.7354C103.781 68.7354 96.2953 72.7196 93.1758 65.2973Z" fill="#201E1E"/>
<path d="M97.4786 44.0043C97.274 43.1923 97.1647 42.375 97.147 41.556C97.1276 40.5573 97.244 39.5568 97.4944 38.5546C97.9423 36.7598 98.7464 35.6519 99.667 35.1147C100.224 34.7906 100.822 34.6744 101.413 34.7413C101.995 34.8082 102.566 35.0531 103.077 35.4546C104.081 36.2402 104.862 37.6299 105.04 39.4265C105.216 41.2055 105.146 42.8611 104.82 44.3918C104.506 45.8607 103.956 47.2134 103.159 48.4446C103.303 48.6525 103.448 48.8674 103.589 49.0893L103.09 49.4063C102.157 47.9497 101.148 46.8013 100.062 45.9646C98.988 45.1403 97.8542 44.5168 96.6251 44.3143L96.7027 43.8369C96.9636 43.8792 97.2229 43.9356 97.4768 44.006L97.4786 44.0043Z" fill="#201E1E"/>
<path fill-rule="evenodd" clip-rule="evenodd" d="M98.4943 40.7898C100.18 40.7898 101.547 42.7132 101.547 45.084C101.547 45.5261 101.499 45.9523 101.411 46.3539C101.885 46.8171 102.342 47.342 102.785 47.9268C103.474 46.8101 103.957 45.5895 104.239 44.2667C104.553 42.796 104.622 41.1984 104.451 39.4828C104.291 37.8571 103.599 36.6118 102.714 35.9196C102.289 35.5867 101.82 35.3824 101.347 35.3296C100.884 35.2767 100.409 35.3683 99.9685 35.6272C99.1767 36.0887 98.4784 37.0751 98.0728 38.699C97.8859 39.4441 97.7783 40.1839 97.7466 40.9201C97.9864 40.8356 98.2368 40.7898 98.4943 40.7898Z" fill="#FEFEFE"/>
<path d="M112.207 48.9449C112.021 48.4481 111.916 47.9673 111.836 47.4195C111.738 46.7537 111.716 46.0527 111.769 45.32C111.863 44.0078 112.214 43.0707 112.681 42.4913C112.963 42.1407 113.288 41.9188 113.623 41.8237C113.952 41.7303 114.293 41.7585 114.612 41.9065C115.24 42.1953 115.795 42.9422 116.053 44.1082C116.307 45.2601 116.411 46.3909 116.363 47.497C116.315 48.5591 116.151 49.5243 115.815 50.5424C116.4 51.018 116.749 51.3949 117.128 52.0378C117.444 52.5715 117.59 53.1369 117.518 53.6494C117.305 55.1466 115.159 56.5838 112.891 56.2703C110.623 55.9568 109.091 54.0105 109.306 52.5134C109.519 51.0162 111.531 49.5789 113.799 49.8925C113.891 49.9048 113.981 49.9206 114.071 49.9383C112.238 49.2425 109.734 49.1985 106.197 49.3975V48.9184C107.613 48.737 112.076 48.8321 112.21 48.9449H112.207Z" fill="#201E1E"/>
<path fill-rule="evenodd" clip-rule="evenodd" d="M112.688 46.5494C113.524 46.1919 114.349 47.0514 114.534 48.4675C114.568 48.7317 114.578 48.9959 114.566 49.2549C114.836 49.431 115.104 49.6476 115.368 49.903C115.624 49.0893 115.769 48.2579 115.806 47.409C115.848 46.4631 115.758 45.4961 115.539 44.5062C115.333 43.5692 114.894 42.9721 114.402 42.7449C114.166 42.6357 113.917 42.6146 113.679 42.6815C113.445 42.7484 113.217 42.9034 113.018 43.1518C112.662 43.5956 112.392 44.3336 112.316 45.3887C112.281 45.8731 112.284 46.3381 112.326 46.7854C112.439 46.6833 112.559 46.604 112.688 46.5494Z" fill="#FEFEFE"/>
<path fill-rule="evenodd" clip-rule="evenodd" d="M112.61 50.472C114.799 50.7749 116.529 52.3214 117.031 53.859C117.059 53.7692 117.081 53.6794 117.093 53.5896C117.285 52.2456 115.79 50.5001 113.755 50.2183C113.058 50.1214 112.388 50.2095 111.803 50.4209C112.069 50.4191 112.339 50.4367 112.612 50.4737L112.61 50.472Z" fill="#FEFEFE"/>
<path fill-rule="evenodd" clip-rule="evenodd" d="M110.909 51.6609C111.272 51.6609 111.566 51.955 111.566 52.3178C111.566 52.6807 111.272 52.9748 110.909 52.9748C110.545 52.9748 110.251 52.6807 110.251 52.3178C110.251 51.955 110.545 51.6609 110.909 51.6609Z" fill="#FEFEFE"/>
<path d="M171.755 34.2355L176.441 45.5935H177.394L182.08 34.2355H187.759L182.041 47.738V48.4528L187.759 62.0347H182.08L177.394 50.5973H176.441L171.755 62.0347H166.076L171.795 48.4528V47.738L166.076 34.2355H171.755ZM195.039 48.8499H207.43V53.3773H195.039V48.8499ZM225.63 57.8251C226.636 57.8251 227.457 57.6795 228.093 57.3883C228.754 57.0706 229.257 56.6602 229.602 56.1572C229.972 55.6277 230.224 55.032 230.356 54.3701C230.489 53.6817 230.555 52.9801 230.555 52.2653V51.5504H235.797V52.2653C235.797 55.5747 234.923 58.1296 233.176 59.9299C231.455 61.7038 228.94 62.5907 225.63 62.5907C222.453 62.5907 219.938 61.6244 218.085 59.6917C216.232 57.7589 215.305 54.9393 215.305 51.2327V45.0375C215.305 43.2636 215.543 41.6751 216.02 40.2719C216.496 38.8422 217.185 37.6508 218.085 36.6977C218.985 35.7181 220.07 34.9768 221.341 34.4738C222.612 33.9443 224.042 33.6795 225.63 33.6795C227.272 33.6795 228.728 33.9178 229.999 34.3943C231.27 34.8709 232.329 35.5593 233.176 36.4594C234.049 37.3596 234.698 38.4451 235.122 39.7159C235.572 40.9867 235.797 42.4164 235.797 44.0049V44.7198H230.555V44.0049C230.555 43.343 230.475 42.6812 230.316 42.0193C230.158 41.3574 229.893 40.7617 229.522 40.2322C229.152 39.7027 228.648 39.2791 228.013 38.9614C227.378 38.6172 226.583 38.4451 225.63 38.4451C224.757 38.4451 224.002 38.6172 223.367 38.9614C222.731 39.2791 222.202 39.7291 221.778 40.3116C221.355 40.8676 221.037 41.5295 220.825 42.2973C220.64 43.0386 220.547 43.8196 220.547 44.6403V51.6299C220.547 52.53 220.64 53.364 220.825 54.1318C221.01 54.8731 221.302 55.5218 221.699 56.0777C222.096 56.6337 222.612 57.0706 223.248 57.3883C223.909 57.6795 224.704 57.8251 225.63 57.8251ZM245.896 62.0347H240.892V34.2355H245.896V45.514H246.611C247.114 44.3226 247.855 43.4092 248.835 42.7738C249.814 42.1119 251.019 41.781 252.449 41.781C253.428 41.781 254.329 41.9398 255.149 42.2576C255.97 42.5753 256.685 43.0518 257.294 43.6872C257.903 44.3226 258.379 45.1434 258.723 46.1494C259.068 47.129 259.24 48.294 259.24 49.6442V62.0347H254.236V50.8356C254.236 49.4324 253.892 48.3337 253.203 47.5394C252.541 46.7187 251.575 46.3083 250.304 46.3083C248.822 46.3083 247.71 46.8113 246.968 47.8174C246.254 48.797 245.896 50.1208 245.896 51.7887V62.0347ZM277.877 59.1754C277.348 60.4197 276.607 61.3067 275.653 61.8362C274.7 62.3392 273.588 62.5907 272.318 62.5907C271.126 62.5907 270.001 62.3657 268.942 61.9156C267.909 61.4655 266.996 60.8036 266.202 59.9299C265.407 59.0562 264.772 57.9972 264.295 56.7529C263.845 55.5085 263.62 54.0921 263.62 52.5036V51.8681C263.62 50.3061 263.845 48.9029 264.295 47.6586C264.746 46.4142 265.354 45.3552 266.122 44.4815C266.89 43.6078 267.777 42.9459 268.783 42.4958C269.816 42.0193 270.914 41.781 272.079 41.781C273.482 41.781 274.608 42.0193 275.455 42.4958C276.329 42.9724 277.017 43.7137 277.52 44.7198H278.235V42.337H283.239V56.0777C283.239 56.872 283.596 57.2691 284.311 57.2691H285.065V62.0347H281.65C280.75 62.0347 280.009 61.77 279.426 61.2405C278.87 60.711 278.592 60.0226 278.592 59.1754H277.877ZM273.429 57.8251C274.886 57.8251 276.051 57.3486 276.924 56.3955C277.798 55.4159 278.235 54.0921 278.235 52.4241V51.9476C278.235 50.2796 277.798 48.9691 276.924 48.016C276.051 47.0364 274.886 46.5466 273.429 46.5466C271.973 46.5466 270.808 47.0364 269.935 48.016C269.061 48.9691 268.624 50.2796 268.624 51.9476V52.4241C268.624 54.0921 269.061 55.4159 269.935 56.3955C270.808 57.3486 271.973 57.8251 273.429 57.8251ZM289.803 57.2691H296.475V47.1026H290.28V42.337H301.479V57.2691H307.198V62.0347H289.803V57.2691ZM302.71 36.4991C302.71 37.0287 302.604 37.5317 302.392 38.0082C302.207 38.4583 301.942 38.8555 301.598 39.1996C301.254 39.5173 300.844 39.7821 300.367 39.9939C299.917 40.1792 299.44 40.2719 298.937 40.2719C298.408 40.2719 297.918 40.1792 297.468 39.9939C297.018 39.7821 296.621 39.5173 296.277 39.1996C295.932 38.8555 295.654 38.4583 295.443 38.0082C295.257 37.5317 295.165 37.0287 295.165 36.4991C295.165 35.9696 295.257 35.4798 295.443 35.0298C295.654 34.5532 295.932 34.1561 296.277 33.8384C296.621 33.4942 297.018 33.2294 297.468 33.0441C297.918 32.8323 298.408 32.7264 298.937 32.7264C299.44 32.7264 299.917 32.8323 300.367 33.0441C300.844 33.2294 301.254 33.4942 301.598 33.8384C301.942 34.1561 302.207 34.5532 302.392 35.0298C302.604 35.4798 302.71 35.9696 302.71 36.4991ZM318.766 62.0347H313.763V42.337H318.766V45.2758H319.481C319.931 44.1638 320.659 43.3033 321.666 42.6944C322.672 42.0855 323.85 41.781 325.2 41.781C326.153 41.781 327.04 41.9398 327.861 42.2576C328.708 42.5488 329.449 43.0121 330.085 43.6475C330.72 44.2829 331.21 45.0904 331.554 46.07C331.925 47.0496 332.11 48.2145 332.11 49.5648V62.0347H327.106V50.8356C327.106 49.4324 326.762 48.3337 326.074 47.5394C325.412 46.7187 324.445 46.3083 323.175 46.3083C321.692 46.3083 320.58 46.8113 319.839 47.8174C319.124 48.797 318.766 50.1208 318.766 51.7887V62.0347Z" fill="#11325B"/>
<path d="M175.804 87.7183H168.542L167.307 91.9303H165.129L170.26 74.9857H174.085L179.217 91.9303H177.038L175.804 87.7183ZM172.027 75.8571L169.098 85.8302H175.247L172.318 75.8571H172.027ZM181.015 79.9238H185.373V81.5214H185.663C185.97 80.8598 186.405 80.3757 186.97 80.0691C187.535 79.7463 188.181 79.5849 188.907 79.5849C190.117 79.5849 191.093 79.9803 191.836 80.771C192.578 81.5618 192.973 82.7156 193.022 84.2326L191.037 84.5231C191.037 83.4096 190.771 82.6107 190.238 82.1266C189.706 81.6263 189.052 81.3762 188.277 81.3762C187.777 81.3762 187.341 81.473 186.97 81.6667C186.615 81.8603 186.317 82.1266 186.075 82.4655C185.833 82.8044 185.655 83.1998 185.542 83.6516C185.429 84.1035 185.373 84.5876 185.373 85.104V90.1874H188.423V91.9303H180.725V90.1874H183.485V81.6667H181.015V79.9238ZM197.967 91.9303H196.079V74.9857H197.967V81.8119H198.258C198.677 81.0857 199.258 80.537 200.001 80.1659C200.743 79.7786 201.55 79.5849 202.421 79.5849C203.164 79.5849 203.866 79.7221 204.527 79.9964C205.189 80.2708 205.77 80.6661 206.27 81.1826C206.787 81.699 207.19 82.3364 207.481 83.0949C207.787 83.8533 207.94 84.7167 207.94 85.685V86.1691C207.94 87.1535 207.795 88.0249 207.505 88.7834C207.214 89.5419 206.811 90.1793 206.294 90.6957C205.794 91.2121 205.205 91.6075 204.527 91.8818C203.85 92.14 203.131 92.2692 202.373 92.2692C201.986 92.2692 201.59 92.2207 201.187 92.1239C200.783 92.0432 200.396 91.9141 200.025 91.7366C199.67 91.543 199.339 91.317 199.032 91.0588C198.726 90.7845 198.468 90.4617 198.258 90.0906H197.967V91.9303ZM201.986 90.4779C202.567 90.4779 203.099 90.381 203.583 90.1874C204.067 89.9776 204.487 89.6871 204.842 89.316C205.213 88.9448 205.496 88.4929 205.689 87.9604C205.899 87.4278 206.004 86.8307 206.004 86.1691V85.685C206.004 85.0395 205.899 84.4585 205.689 83.9421C205.496 83.4096 205.213 82.9577 204.842 82.5865C204.487 82.1992 204.059 81.9007 203.559 81.6909C203.075 81.4811 202.551 81.3762 201.986 81.3762C201.421 81.3762 200.896 81.4892 200.412 81.7151C199.928 81.9249 199.5 82.2234 199.129 82.6107C198.774 82.998 198.492 83.466 198.282 84.0147C198.072 84.5473 197.967 85.1363 197.967 85.7818V86.0723C197.967 86.7339 198.072 87.3391 198.282 87.8878C198.492 88.4203 198.774 88.8802 199.129 89.2675C199.5 89.6548 199.928 89.9534 200.412 90.1632C200.896 90.373 201.421 90.4779 201.986 90.4779ZM215.065 76.3412C215.065 75.8732 215.226 75.4779 215.549 75.1551C215.888 74.8162 216.291 74.6468 216.759 74.6468C217.227 74.6468 217.622 74.8162 217.945 75.1551C218.284 75.4779 218.454 75.8732 218.454 76.3412C218.454 76.8092 218.284 77.2127 217.945 77.5516C217.622 77.8743 217.227 78.0357 216.759 78.0357C216.291 78.0357 215.888 77.8743 215.549 77.5516C215.226 77.2127 215.065 76.8092 215.065 76.3412ZM211.627 90.1874H215.839V81.6667H212.063V79.9238H217.727V90.1874H221.649V91.9303H211.627V90.1874ZM225.747 79.9238H229.523V74.9857H231.411V79.9238H236.059V81.6667H231.411V89.4612C231.411 89.9453 231.629 90.1874 232.065 90.1874H235.478V91.9303H231.387C230.839 91.9303 230.387 91.7527 230.032 91.3977C229.693 91.0427 229.523 90.5908 229.523 90.0421V81.6667H225.747V79.9238ZM240.303 79.9238H244.66V81.5214H244.95C245.257 80.8598 245.693 80.3757 246.257 80.0691C246.822 79.7463 247.468 79.5849 248.194 79.5849C249.404 79.5849 250.381 79.9803 251.123 80.771C251.865 81.5618 252.261 82.7156 252.309 84.2326L250.324 84.5231C250.324 83.4096 250.058 82.6107 249.525 82.1266C248.993 81.6263 248.339 81.3762 247.565 81.3762C247.064 81.3762 246.629 81.473 246.257 81.6667C245.902 81.8603 245.604 82.1266 245.362 82.4655C245.12 82.8044 244.942 83.1998 244.829 83.6516C244.716 84.1035 244.66 84.5876 244.66 85.104V90.1874H247.71V91.9303H240.012V90.1874H242.772V81.6667H240.303V79.9238ZM264.516 89.8969H264.226C263.839 90.7038 263.298 91.3009 262.604 91.6882C261.926 92.0755 261.208 92.2692 260.45 92.2692C259.659 92.2692 258.925 92.14 258.247 91.8818C257.569 91.6075 256.972 91.2121 256.456 90.6957C255.955 90.1632 255.56 89.5177 255.27 88.7592C254.979 88.0007 254.834 87.1212 254.834 86.1207V85.7334C254.834 84.749 254.979 83.8775 255.27 83.1191C255.56 82.3606 255.955 81.7232 256.456 81.2068C256.972 80.6742 257.569 80.2708 258.247 79.9964C258.925 79.7221 259.643 79.5849 260.401 79.5849C261.224 79.5849 261.967 79.7705 262.628 80.1417C263.306 80.4967 263.839 81.0535 264.226 81.8119H264.516V79.9238H266.405V89.4612C266.405 89.9453 266.622 90.1874 267.058 90.1874H267.663V91.9303H266.38C265.832 91.9303 265.38 91.7527 265.025 91.3977C264.686 91.0427 264.516 90.5908 264.516 90.0421V89.8969ZM260.643 90.4779C261.208 90.4779 261.725 90.373 262.193 90.1632C262.677 89.9534 263.088 89.6548 263.427 89.2675C263.766 88.8802 264.032 88.4203 264.226 87.8878C264.42 87.3391 264.516 86.7339 264.516 86.0723V85.7818C264.516 85.1363 264.42 84.5473 264.226 84.0147C264.032 83.466 263.758 82.998 263.403 82.6107C263.064 82.2234 262.653 81.9249 262.168 81.7151C261.7 81.4892 261.192 81.3762 260.643 81.3762C260.079 81.3762 259.562 81.4811 259.094 81.6909C258.626 81.9007 258.215 82.1992 257.86 82.5865C257.521 82.9577 257.255 83.4176 257.061 83.9663C256.867 84.4988 256.77 85.0879 256.77 85.7334V86.1207C256.77 87.4924 257.125 88.5655 257.835 89.3402C258.562 90.0986 259.498 90.4779 260.643 90.4779ZM269.946 79.9238H274.303V81.5214H274.594C274.9 80.8598 275.336 80.3757 275.901 80.0691C276.466 79.7463 277.111 79.5849 277.837 79.5849C279.048 79.5849 280.024 79.9803 280.766 80.771C281.509 81.5618 281.904 82.7156 281.953 84.2326L279.968 84.5231C279.968 83.4096 279.701 82.6107 279.169 82.1266C278.636 81.6263 277.983 81.3762 277.208 81.3762C276.708 81.3762 276.272 81.473 275.901 81.6667C275.546 81.8603 275.247 82.1266 275.005 82.4655C274.763 82.8044 274.586 83.1998 274.473 83.6516C274.36 84.1035 274.303 84.5876 274.303 85.104V90.1874H277.353V91.9303H269.656V90.1874H272.415V81.6667H269.946V79.9238ZM294.16 89.7517H293.87C293.482 90.5263 292.974 91.1395 292.345 91.5914C291.715 92.0432 290.916 92.2692 289.948 92.2692C289.286 92.2692 288.673 92.1562 288.108 91.9303C287.56 91.7205 287.084 91.3977 286.68 90.962C286.293 90.5263 285.986 89.9857 285.76 89.3402C285.551 88.6947 285.446 87.9442 285.446 87.089V79.9238H287.334V86.8469C287.334 88.1056 287.592 89.0255 288.108 89.6064C288.625 90.1874 289.416 90.4779 290.481 90.4779C291.626 90.4779 292.522 90.0906 293.168 89.316C293.829 88.5252 294.16 87.4763 294.16 86.1691V79.9238H296.048V94.8835C296.048 95.4321 295.871 95.884 295.516 96.239C295.177 96.5941 294.733 96.7716 294.184 96.7716H287.334V95.0287H293.506C293.942 95.0287 294.16 94.7866 294.16 94.3025V89.7517ZM167.041 99.9857H177.304V101.874H169.074V107.49H177.159V109.378H169.074V115.042H177.45V116.93H167.041V99.9857ZM190.238 104.924H192.393L188.858 110.637V110.927L192.683 116.93H190.48L187.212 111.653H186.777L183.509 116.93H181.306L185.131 110.927V110.637L181.596 104.924H183.751L186.777 109.91H187.212L190.238 104.924ZM197.895 111.508C197.943 112.702 198.314 113.662 199.008 114.389C199.702 115.115 200.67 115.478 201.913 115.478C202.478 115.478 202.97 115.413 203.39 115.284C203.809 115.155 204.164 114.978 204.455 114.752C204.761 114.526 205.003 114.268 205.181 113.977C205.375 113.67 205.528 113.348 205.641 113.009L207.432 113.493C207.093 114.606 206.464 115.518 205.544 116.228C204.64 116.922 203.414 117.269 201.865 117.269C201.009 117.269 200.219 117.124 199.492 116.833C198.782 116.527 198.169 116.099 197.653 115.55C197.136 115.002 196.733 114.348 196.442 113.59C196.152 112.831 196.007 111.992 196.007 111.072V110.491C196.007 109.652 196.152 108.869 196.442 108.143C196.749 107.417 197.169 106.796 197.701 106.279C198.234 105.747 198.855 105.335 199.565 105.045C200.291 104.738 201.074 104.585 201.913 104.585C202.897 104.585 203.745 104.771 204.455 105.142C205.181 105.497 205.77 105.94 206.222 106.473C206.69 107.006 207.029 107.587 207.239 108.216C207.464 108.845 207.577 109.426 207.577 109.959V111.508H197.895ZM201.913 106.376C201.381 106.376 200.88 106.465 200.412 106.642C199.96 106.804 199.557 107.038 199.202 107.344C198.863 107.651 198.581 108.014 198.355 108.434C198.145 108.837 198.008 109.281 197.943 109.765H205.689C205.657 109.249 205.528 108.781 205.302 108.361C205.092 107.942 204.81 107.587 204.455 107.296C204.116 107.006 203.72 106.78 203.269 106.618C202.833 106.457 202.381 106.376 201.913 106.376ZM222.569 112.67C222.44 113.332 222.214 113.945 221.891 114.51C221.584 115.074 221.189 115.567 220.705 115.986C220.221 116.39 219.656 116.704 219.01 116.93C218.365 117.156 217.647 117.269 216.856 117.269C216.017 117.269 215.218 117.132 214.459 116.858C213.717 116.583 213.064 116.188 212.499 115.672C211.934 115.139 211.482 114.493 211.143 113.735C210.82 112.977 210.659 112.105 210.659 111.121V110.83C210.659 109.862 210.82 108.991 211.143 108.216C211.482 107.441 211.934 106.788 212.499 106.255C213.064 105.723 213.717 105.311 214.459 105.021C215.218 104.73 216.017 104.585 216.856 104.585C217.614 104.585 218.316 104.698 218.962 104.924C219.607 105.15 220.172 105.472 220.656 105.892C221.157 106.296 221.56 106.78 221.867 107.344C222.189 107.909 222.407 108.523 222.52 109.184L220.632 109.62C220.584 109.2 220.463 108.797 220.269 108.41C220.091 108.006 219.841 107.659 219.519 107.369C219.212 107.062 218.833 106.82 218.381 106.642C217.929 106.465 217.405 106.376 216.807 106.376C216.227 106.376 215.678 106.489 215.161 106.715C214.661 106.925 214.217 107.232 213.83 107.635C213.443 108.022 213.136 108.49 212.91 109.039C212.7 109.588 212.596 110.185 212.596 110.83V111.121C212.596 111.798 212.7 112.412 212.91 112.96C213.136 113.493 213.443 113.945 213.83 114.316C214.217 114.687 214.669 114.978 215.186 115.187C215.702 115.381 216.259 115.478 216.856 115.478C217.453 115.478 217.969 115.389 218.405 115.212C218.857 115.018 219.236 114.776 219.543 114.485C219.866 114.179 220.116 113.832 220.293 113.445C220.487 113.057 220.616 112.654 220.681 112.234L222.569 112.67ZM234.728 104.924H236.616V116.93H234.728V114.752H234.437C234.05 115.526 233.542 116.14 232.912 116.591C232.283 117.043 231.484 117.269 230.516 117.269C229.854 117.269 229.241 117.156 228.676 116.93C228.127 116.72 227.651 116.398 227.248 115.962C226.861 115.526 226.554 114.986 226.328 114.34C226.118 113.695 226.013 112.944 226.013 112.089V104.924H227.901V111.847C227.901 113.106 228.16 114.025 228.676 114.606C229.192 115.187 229.983 115.478 231.048 115.478C232.194 115.478 233.09 115.091 233.735 114.316C234.397 113.525 234.728 112.476 234.728 111.169V104.924ZM240.569 104.924H244.345V99.9857H246.233V104.924H250.881V106.667H246.233V114.461C246.233 114.945 246.451 115.187 246.887 115.187H250.3V116.93H246.209C245.66 116.93 245.208 116.753 244.853 116.398C244.515 116.043 244.345 115.591 244.345 115.042V106.667H240.569V104.924ZM259.53 101.341C259.53 100.873 259.691 100.478 260.014 100.155C260.353 99.8162 260.756 99.6468 261.224 99.6468C261.692 99.6468 262.088 99.8162 262.411 100.155C262.749 100.478 262.919 100.873 262.919 101.341C262.919 101.809 262.749 102.213 262.411 102.552C262.088 102.874 261.692 103.036 261.224 103.036C260.756 103.036 260.353 102.874 260.014 102.552C259.691 102.213 259.53 101.809 259.53 101.341ZM256.093 115.187H260.305V106.667H256.528V104.924H262.193V115.187H266.114V116.93H256.093V115.187ZM281.953 111.072C281.953 112.073 281.783 112.96 281.444 113.735C281.121 114.493 280.686 115.139 280.137 115.672C279.588 116.188 278.943 116.583 278.201 116.858C277.474 117.132 276.716 117.269 275.925 117.269C275.118 117.269 274.352 117.132 273.626 116.858C272.899 116.583 272.262 116.188 271.713 115.672C271.165 115.139 270.721 114.493 270.382 113.735C270.059 112.96 269.898 112.073 269.898 111.072V110.782C269.898 109.797 270.059 108.926 270.382 108.167C270.721 107.393 271.165 106.739 271.713 106.207C272.278 105.674 272.924 105.271 273.65 104.996C274.376 104.722 275.134 104.585 275.925 104.585C276.716 104.585 277.474 104.722 278.201 104.996C278.927 105.271 279.564 105.674 280.113 106.207C280.678 106.739 281.121 107.393 281.444 108.167C281.783 108.926 281.953 109.797 281.953 110.782V111.072ZM275.925 115.478C276.506 115.478 277.039 115.381 277.523 115.187C278.023 114.978 278.459 114.679 278.83 114.292C279.201 113.904 279.492 113.445 279.701 112.912C279.911 112.363 280.016 111.75 280.016 111.072V110.782C280.016 110.136 279.911 109.547 279.701 109.015C279.492 108.466 279.201 107.998 278.83 107.611C278.459 107.223 278.023 106.925 277.523 106.715C277.023 106.489 276.49 106.376 275.925 106.376C275.36 106.376 274.828 106.489 274.328 106.715C273.827 106.925 273.392 107.223 273.02 107.611C272.649 107.998 272.359 108.466 272.149 109.015C271.939 109.547 271.834 110.136 271.834 110.782V111.072C271.834 111.75 271.939 112.363 272.149 112.912C272.359 113.445 272.649 113.904 273.02 114.292C273.392 114.679 273.819 114.978 274.303 115.187C274.804 115.381 275.344 115.478 275.925 115.478ZM287.334 116.93H285.446V104.924H287.334V106.957H287.624C288.367 105.376 289.658 104.585 291.497 104.585C292.885 104.585 293.991 105.021 294.814 105.892C295.637 106.747 296.048 108.038 296.048 109.765V116.93H294.16V110.152C294.16 108.894 293.878 107.95 293.313 107.32C292.748 106.691 291.981 106.376 291.013 106.376C289.867 106.376 288.964 106.772 288.302 107.562C287.657 108.337 287.334 109.378 287.334 110.685V116.93Z" fill="#11325B"/>
</svg>
